# xmcd
#
# Track frame offsets:
# 150
# 17643
# 37438
# 49841
# 69453
# 85277
# 100021
# 117489
# 128910
# 144271
# 157925
# 168782
# 192326
# 203162
#
# Disc length: 2939 seconds
#
#
# Revision: 0
# Processed by: cddbd v1.5.1PL2 Copyright (c) Steve Scherf et al.
# Submitted via: FreeRIP 2.942 
#
DISCID=be0b790e
DTITLE=Cypress City - Shake That Fess
DYEAR=2005
DGENRE=Polka
TTITLE0=Shake That Fess
TTITLE1=Little Bird
TTITLE2=Crawfish Man
TTITLE3=My Baby's Gone
TTITLE4=I Want Some Couche-Couche
TTITLE5=Let It Pour
TTITLE6=What Would I Do
TTITLE7=Hot Boudin
TTITLE8=My Toot Toot
TTITLE9=Marie Laveau
TTITLE10=Cypress City
TTITLE11=Raindrops In Heaven
TTITLE12=Double Shot Of My Baby's Love
TTITLE13=Cajun Rap Song
EXTD=
EXTT0=
EXTT1=
EXTT2=
EXTT3=
EXTT4=
EXTT5=
EXTT6=
EXTT7=
EXTT8=
EXTT9=
EXTT10=
EXTT11=
EXTT12=
EXTT13=
PLAYORDER=
